<?xml version="1.0" encoding="utf-8"?>
<!-- Generator: Adobe Illustrator 24.0.1, SVG Export Plug-In . SVG Version: 6.00 Build 0)  -->
<!DOCTYPE svg PUBLIC "-//W3C//DTD SVG 1.1//EN" "http://www.w3.org/Graphics/SVG/1.1/DTD/svg11.dtd" [
	<!ENTITY ns_extend "http://ns.adobe.com/Extensibility/1.0/">
	<!ENTITY ns_ai "http://ns.adobe.com/AdobeIllustrator/10.0/">
	<!ENTITY ns_graphs "http://ns.adobe.com/Graphs/1.0/">
	<!ENTITY ns_vars "http://ns.adobe.com/Variables/1.0/">
	<!ENTITY ns_imrep "http://ns.adobe.com/ImageReplacement/1.0/">
	<!ENTITY ns_sfw "http://ns.adobe.com/SaveForWeb/1.0/">
	<!ENTITY ns_custom "http://ns.adobe.com/GenericCustomNamespace/1.0/">
	<!ENTITY ns_adobe_xpath "http://ns.adobe.com/XPath/1.0/">
]>
<svg version="1.1" id="Layer_1" xmlns:x="&ns_extend;" xmlns:i="&ns_ai;" xmlns:graph="&ns_graphs;"
	 xmlns="http://www.w3.org/2000/svg" xmlns:xlink="http://www.w3.org/1999/xlink" x="0px" y="0px" viewBox="0 0 239 120"
	 style="enable-background:new 0 0 239 120;" xml:space="preserve">
<style type="text/css">
	.st0{fill:#D32F2F;}
	.st1{fill:none;}
</style>
<metadata>
	<sfw  xmlns="&ns_sfw;">
		<slices></slices>
		<sliceSourceBounds  bottomLeftOrigin="true" height="111" width="231.3" x="84.7" y="4.3"></sliceSourceBounds>
	</sfw>
</metadata>
<g id="INNO">
	<g id="XMLID_4_">
		<g>
			<path class="st0" d="M214.8,70.1V29.9c0-2.8-2.3-5-5-5h-10.1c-2.8,0-5,2.3-5,5v40.2c0,2.8,2.3,5,5,5h10.1
				C212.6,75.1,214.8,72.8,214.8,70.1z M219.9,4.7c8.3,0,15.1,6.8,15.1,15.1v60.3c0,8.3-6.8,15.1-15.1,15.1h-30.2
				c-8.3,0-15.1-6.8-15.1-15.1V4.7H219.9z"/>
			<path class="st0" d="M149.5,4.7c8.3,0,15.1,6.8,15.1,15.1v75.4h-20.1V29.9c0-2.8-2.3-5-5-5h-15.1v70.4h-20.1V4.7H149.5z"/>
			<path class="st0" d="M74,95.2V29.9c0-2.8-2.3-5-5-5H53.9v70.4H33.8V4.7h45.3c8.3,0,15.1,6.8,15.1,15.1v75.4L74,95.2L74,95.2z"/>
			<path class="st0" d="M18.7,95.2c-8.3,0-15.1-6.8-15.1-15.1V34.9h20.1v40.2v20.1H18.7z"/>
			<path class="st0" d="M23.8,4.7v20.1H3.7v-5c0-8.3,6.8-15.1,15.1-15.1C18.7,4.7,23.8,4.7,23.8,4.7z"/>
		</g>
	</g>
</g>
<g id="CREATIVITY">
	<g id="XMLID_1_">
		<g>
			<polygon class="st0" points="127.9,111.4 127.9,115.3 126.8,115.3 126.8,111.4 123.7,105.3 125.1,105.3 127.3,110.2 129.6,105.3 
				130.9,105.3 			"/>
			<polygon class="st0" points="115.4,106.4 115.4,115.3 114.4,115.3 114.4,106.4 111.7,106.4 111.7,105.3 118.1,105.3 118.1,106.4 
							"/>
			<rect x="104.2" y="105.3" class="st0" width="1" height="10.1"/>
			<polygon class="st0" points="97.5,105.3 94.7,115.3 93.5,115.3 90.7,105.3 91.8,105.3 94.1,113.8 96.4,105.3 			"/>
			<rect x="83.1" y="105.3" class="st0" width="1.1" height="10.1"/>
			<polygon class="st0" points="73.8,106.4 73.8,115.3 72.7,115.3 72.7,106.4 70.1,106.4 70.1,105.3 76.4,105.3 76.4,106.4 			"/>
			<path class="st0" d="M62,111.3l-1.1-4.4l-1.3,4.4H62z M61.5,105.3l2.8,10.1h-1.1l-0.8-3h-3.1l-0.9,3h-1.1l2.9-10.1H61.5z"/>
			<polygon class="st0" points="50.9,105.3 50.9,106.4 46.4,106.4 46.4,109.6 50.8,109.6 50.8,110.7 46.4,110.7 46.4,114.2 
				51.1,114.2 51.1,115.3 45.4,115.3 45.4,105.3 			"/>
			<path class="st0" d="M36.9,106.9L36.9,106.9l-0.9-0.5h-0.2h-2.7v3.5h2.7l0.8-0.2l0.5-0.7l0.1-1L36.9,106.9z M32.1,105.3h3.7
				l1.1,0.1l0.7,0.4l0.2,0.2l0.4,0.9l0.1,1.2l-0.2,1.1l-0.5,0.9l-0.3,0.3l0.7,0.8l0.2,0.9v1l0.1,1.1l0.4,0.9v0.3h-1.3l-0.2-0.9
				l0-1.1v-0.5l-0.2-1.2l-0.5-0.6l-0.5-0.1h-2.7v4.3h-1.1L32.1,105.3L32.1,105.3z"/>
			<polygon class="st0" points="20.9,106.5 20.2,107.1 20,107.4 19.6,108.3 19.4,109.4 19.5,111.7 19.7,112.7 20,113.3 20.7,114.1 
				21.5,114.5 21.8,114.5 22.6,114.3 23.3,113.8 23.8,113 24.1,111.8 24.2,111.6 25.3,111.6 24.9,112.9 24.5,113.9 24,114.7 
				23.4,115.2 22.6,115.6 21.8,115.7 20.9,115.5 20.1,115.1 19.4,114.4 19.3,114.2 18.8,113.3 18.5,112.3 18.3,111.2 18.3,110.4 
				18.3,109.2 18.6,108 19,107.1 19.2,106.7 19.8,105.9 20.5,105.4 21.4,105.1 21.8,105.1 22.8,105.3 23.6,105.8 23.8,105.9 
				24.4,106.7 24.9,107.7 25.1,108.4 24,108.4 23.5,107.3 22.9,106.6 22.1,106.3 21.8,106.3 			"/>
		</g>
	</g>
</g>
<g id="AT_WORK">
	<g id="POLYLINE_2_">
		<g id="XMLID_2_">
			<g>
				<polygon class="st0" points="157.8,106.4 155.2,106.4 155.2,105.3 161.5,105.3 161.5,106.4 158.8,106.4 158.8,115.3 
					157.8,115.3 				"/>
				<path class="st0" d="M150.1,111.2l-1.2-4.4l-1.3,4.4H150.1z M149.6,105.3l2.8,10.1h-1.1l-0.8-3h-3.1l-0.9,3h-1.1l2.9-10.1H149.6
					z"/>
			</g>
		</g>
	</g>
	<g id="LWPOLYLINE_10_">
		<g id="XMLID_3_">
			<g>
				<polygon class="st0" points="221.4,109.3 224.9,115.3 223.5,115.3 220.6,110.2 219.3,111.8 219.3,115.3 218.3,115.3 
					218.3,105.3 219.3,105.3 219.3,110.3 223.3,105.3 224.8,105.3 				"/>
				<path class="st0" d="M210.6,108L210.6,108l-0.2-0.9l-0.2-0.3l-0.6-0.3l-0.7-0.1h-2.5v3.3h2.3l1.1-0.2l0.6-0.5l0-0.1L210.6,108z
					 M210.9,112.6l1.4,2.7H211l-1.1-2.1l-0.5-0.9l-0.3-0.5l-0.5-0.7l-0.5-0.3l-0.6-0.1h-1.2v4.5h-1.1v-10.1l4.4,0.1l0.7,0.2l0.1,0
					l0.6,0.5l0.3,0.5l0.3,0.8l0,0.6l-0.1,0.9l-0.4,0.8l-0.1,0.1l-0.5,0.5l-0.7,0.3l-0.5,0.1l0.7,0.5l0.5,0.6L210.9,112.6z"/>
				<path class="st0" d="M195.6,115.5l-0.5,0l-0.8-0.1l-0.7-0.3l-0.5-0.3l-1.1-1.3l-0.3-0.6l-0.3-0.9l-0.2-0.9l0-0.7l0-1.1l0.2-0.9
					l0.2-0.8l0.4-0.7l0.3-0.4l0.6-0.6l0.6-0.4l0.7-0.3l0.8-0.1h0.2l0.8,0.1l0.7,0.3l0.5,0.3l0.6,0.6l0.5,0.7l0.3,0.6l0.3,0.8
					l0.1,0.9l0.1,1l-0.1,1l-0.2,0.9l-0.3,0.8l0,0l-0.4,0.8l-0.5,0.7l-0.4,0.4l-0.7,0.4L195.6,115.5z M195.8,106.4l-0.7-0.1h0
					l-0.7,0.1l-0.7,0.3l-0.5,0.5l-0.4,0.6l-0.3,0.8l-0.1,1l0,0.9l0.1,1l0.2,0.9l0.3,0.7l0.2,0.2l0.6,0.6l0.6,0.3l0.7,0.1l0.7-0.1
					l0.7-0.3l0.6-0.6l0.4-0.7l0.3-0.8l0.1-1l0-0.5l-0.1-1l-0.2-0.9l-0.1-0.3l-0.4-0.8l-0.5-0.6l0,0L195.8,106.4z"/>
				<polygon class="st0" points="182.6,112.3 182.8,113.2 182.9,113.9 183,113.1 183.2,112.1 183.3,111.7 184.5,105.3 185.6,105.3 
					183.4,115.3 182.4,115.3 180.7,107.7 180.4,106.6 180.4,106.5 180.2,107.4 180.2,107.7 178.5,115.3 177.4,115.3 175.3,105.3 
					176.4,105.3 177.6,111.8 177.7,112.8 177.9,113.7 177.9,113.9 178.1,112.7 178.3,112.1 179.8,105.3 181.1,105.3 182.2,110.4 
					182.4,111.3 				"/>
			</g>
			<g>
				<polygon class="st1" points="224.8,105.3 223.3,105.3 219.3,110.3 219.3,105.3 218.3,105.3 218.3,115.3 219.3,115.3 
					219.3,111.8 220.6,110.2 223.5,115.3 224.9,115.3 221.4,109.3 				"/>
				<polygon class="st1" points="180.4,106.5 180.4,106.6 180.7,107.7 182.4,115.3 183.4,115.3 185.6,105.3 184.5,105.3 
					183.3,111.7 183.2,112.1 183,113.1 182.9,113.9 182.8,113.2 182.6,112.3 182.4,111.3 182.2,110.4 181.1,105.3 179.8,105.3 
					178.3,112.1 178.1,112.7 177.9,113.9 177.9,113.7 177.7,112.8 177.6,111.8 176.4,105.3 175.3,105.3 177.4,115.3 178.5,115.3 
					180.2,107.7 180.2,107.4 				"/>
				<polygon class="st1" points="195.1,105.1 194.9,105.1 194.1,105.2 193.5,105.5 192.9,105.9 192.3,106.5 192,106.9 191.7,107.6 
					191.4,108.5 191.3,109.4 191.2,110.4 191.2,111.1 191.4,112.1 191.7,112.9 191.9,113.5 193,114.8 193.6,115.2 194.3,115.4 
					195.1,115.5 195.6,115.5 196.3,115.2 197,114.9 197.5,114.5 198,113.8 198.4,113.1 198.4,113 198.7,112.2 198.8,111.3 
					198.9,110.3 198.8,109.3 198.7,108.5 198.4,107.6 198.2,107 197.6,106.3 197.1,105.8 196.5,105.4 195.8,105.2 				"/>
				<polygon class="st1" points="195.1,106.3 195.1,106.3 195.8,106.4 196.5,106.7 196.5,106.8 197.1,107.4 197.5,108.2 
					197.5,108.4 197.7,109.3 197.8,110.3 197.8,110.8 197.6,111.8 197.4,112.6 197,113.3 196.5,113.9 195.8,114.2 195,114.3 
					194.3,114.2 193.6,113.9 193.1,113.3 192.9,113.1 192.6,112.3 192.4,111.5 192.3,110.4 192.3,109.6 192.5,108.6 192.8,107.8 
					193.1,107.2 193.6,106.7 194.3,106.3 				"/>
				<polygon class="st1" points="208.6,109.7 209.7,109.5 210.3,109 210.4,108.9 210.6,108 210.6,108 210.4,107.1 210.2,106.8 
					209.6,106.5 208.8,106.4 206.3,106.4 206.3,109.7 				"/>
				<polygon class="st1" points="211,106 210.5,105.5 210.3,105.5 209.7,105.3 205.2,105.3 205.2,115.3 206.3,115.3 206.3,110.9 
					207.5,110.9 208.1,110.9 208.6,111.2 209.1,111.8 209.4,112.3 209.9,113.2 211,115.3 212.3,115.3 210.9,112.6 210.5,111.9 
					210,111.3 209.4,110.7 209.9,110.6 210.6,110.3 211.1,109.8 211.2,109.7 211.5,108.9 211.6,108 211.6,107.4 211.3,106.5 				"/>
			</g>
		</g>
	</g>
</g>
</svg>
